<?xml version="1.0" encoding="utf-8"?>
<!-- Generator: Adobe Illustrator 23.0.0, SVG Export Plug-In . SVG Version: 6.00 Build 0)  -->
<svg version="1.1" id="Layer_1" xmlns="http://www.w3.org/2000/svg" xmlns:xlink="http://www.w3.org/1999/xlink" x="0px" y="0px"
	 viewBox="0 0 19.73 21.37" style="enable-background:new 0 0 19.73 21.37;" xml:space="preserve">
<style type="text/css">
	.st0{fill:url(#SVGID_1_);}
	.st1{fill:url(#SVGID_2_);}
	.st2{fill:url(#SVGID_3_);}
	.st3{fill:url(#SVGID_4_);}
	.st4{fill:url(#SVGID_5_);}
	.st5{fill:url(#SVGID_6_);}
	.st6{fill:url(#SVGID_7_);}
	.st7{fill:url(#SVGID_8_);}
	.st8{fill:url(#SVGID_9_);}
</style>
<g>
	<g>
		<linearGradient id="SVGID_1_" gradientUnits="userSpaceOnUse" x1="-65.586" y1="10.3551" x2="-49.1298" y2="10.3551">
			<stop  offset="0" style="stop-color:#010101;stop-opacity:0.9"/>
			<stop  offset="0.1471" style="stop-color:#010101;stop-opacity:0.8706"/>
			<stop  offset="1" style="stop-color:#010101;stop-opacity:0.7"/>
		</linearGradient>
		<path class="st0" d="M-57.36-3.55c-4.5,0-8.03,3.22-8.22,7.48c-0.12,2.75,1.07,6.49,7.45,8.68c4.34,1.49,4.26,3.35,4.23,3.96
			c-0.07,1.69-1.53,2.92-3.46,2.92c-2.32,0-3.25-1.15-3.61-2.12l-4.46,1.69c0.46,1.22,2.41,5.19,8.07,5.19
			c4.5,0,8.03-3.22,8.22-7.48c0.12-2.75-1.07-6.49-7.45-8.68c-4.34-1.49-4.26-3.35-4.23-3.96c0.07-1.69,1.53-2.92,3.46-2.92
			c2.32,0,3.25,1.15,3.61,2.12l4.46-1.69C-49.75,0.43-51.69-3.55-57.36-3.55"/>
	</g>
	<g>
		<linearGradient id="SVGID_2_" gradientUnits="userSpaceOnUse" x1="-37.0383" y1="24.2091" x2="-37.0383" y2="-2.8104">
			<stop  offset="0" style="stop-color:#010101;stop-opacity:0.9"/>
			<stop  offset="0.1471" style="stop-color:#010101;stop-opacity:0.8706"/>
			<stop  offset="1" style="stop-color:#010101;stop-opacity:0.7"/>
		</linearGradient>
		<path class="st1" d="M-37.04-2.81c-2.39,0-4.68,0.95-6.37,2.64c-1.69,1.69-2.64,3.98-2.64,6.36v9.07c0.03,4.95,4.05,8.95,9,8.95
			c4.95,0,8.98-4,9-8.95v-2.19h-4.68v2.19c0,2.39-1.93,4.32-4.32,4.32c-2.39,0-4.32-1.93-4.32-4.32V6.19c0-1.75,1.05-3.32,2.67-3.99
			c1.61-0.67,3.47-0.3,4.71,0.94l3.31-3.31C-32.36-1.87-34.65-2.82-37.04-2.81"/>
		<linearGradient id="SVGID_3_" gradientUnits="userSpaceOnUse" x1="-32.5289" y1="13.0633" x2="-32.5289" y2="8.3836">
			<stop  offset="0" style="stop-color:#010101;stop-opacity:0.9"/>
			<stop  offset="0.1471" style="stop-color:#010101;stop-opacity:0.8706"/>
			<stop  offset="1" style="stop-color:#010101;stop-opacity:0.7"/>
		</linearGradient>
		<polyline class="st2" points="-28.04,8.38 -37.02,8.38 -37.02,13.06 -28.04,13.06 -28.04,8.38 		"/>
	</g>
	<g>
		<linearGradient id="SVGID_4_" gradientUnits="userSpaceOnUse" x1="-24.9489" y1="14.6915" x2="-8.3546" y2="14.6915">
			<stop  offset="0" style="stop-color:#010101;stop-opacity:0.9"/>
			<stop  offset="0.1471" style="stop-color:#010101;stop-opacity:0.8706"/>
			<stop  offset="1" style="stop-color:#010101;stop-opacity:0.7"/>
		</linearGradient>
		<path class="st3" d="M-24.95,5.13L-24.95,5.13v11.19c0,4.38,3.56,7.93,7.94,7.94h8.66v-4.68h-8.66c-1.8,0-3.26-1.46-3.26-3.26
			v-3.96C-23.11,11.08-24.95,8.25-24.95,5.13"/>
		<linearGradient id="SVGID_5_" gradientUnits="userSpaceOnUse" x1="-20.2682" y1="9.0947" x2="-8.3546" y2="9.0947">
			<stop  offset="0" style="stop-color:#010101;stop-opacity:0.9"/>
			<stop  offset="0.1471" style="stop-color:#010101;stop-opacity:0.8706"/>
			<stop  offset="1" style="stop-color:#010101;stop-opacity:0.7"/>
		</linearGradient>
		<path class="st4" d="M-20.27,5.13L-20.27,5.13v7.24c1.02,0.46,2.13,0.7,3.26,0.7h8.66V8.38h-8.66
			C-18.81,8.38-20.27,6.92-20.27,5.13"/>
		<linearGradient id="SVGID_6_" gradientUnits="userSpaceOnUse" x1="-24.9491" y1="4.7765" x2="-8.3546" y2="4.7765">
			<stop  offset="0" style="stop-color:#010101;stop-opacity:0.9"/>
			<stop  offset="0.1471" style="stop-color:#010101;stop-opacity:0.8706"/>
			<stop  offset="1" style="stop-color:#010101;stop-opacity:0.7"/>
		</linearGradient>
		<path class="st5" d="M-8.35-2.81h-8.66c-3.74,0-6.98,2.61-7.76,6.27c-0.79,3.66,1.09,7.37,4.5,8.9V5.13c0-1.8,1.46-3.25,3.26-3.26
			h8.66V-2.81"/>
	</g>
	<linearGradient id="SVGID_7_" gradientUnits="userSpaceOnUse" x1="-92.3846" y1="9.9993" x2="-74.3706" y2="9.9993">
		<stop  offset="0" style="stop-color:#2FB671"/>
		<stop  offset="1" style="stop-color:#20BBB1"/>
	</linearGradient>
	<path class="st6" d="M-86.58,27.67l3.18-13.94l-8.35-0.04c-0.35,0-0.63-0.43-0.63-0.97c0-0.23,0.05-0.43,0.15-0.62l0,0
		c2.45-4.62,4.89-9.24,7.34-13.86c1.21-2.25,2.42-4.54,3.66-6.87c0.23-0.43,0.61-0.47,0.88-0.16c0.2,0.27,0.28,0.7,0.2,1.09
		l-3.2,13.98L-75,6.31c0.35,0,0.63,0.43,0.63,0.97c0,0.23-0.05,0.43-0.13,0.58l0,0c-2.35,4.66-4.82,9.24-7.29,13.86
		c-1.21,2.25-2.42,4.5-3.71,6.91c-0.23,0.43-0.61,0.47-0.88,0.16C-86.61,28.48-86.68,28.06-86.58,27.67"/>
</g>
<g>
	<g>
		<linearGradient id="SVGID_8_" gradientUnits="userSpaceOnUse" x1="8.2169" y1="5.754" x2="11.5076" y2="5.754">
			<stop  offset="0" style="stop-color:#F37E5F"/>
			<stop  offset="0.5" style="stop-color:#EB2227"/>
			<stop  offset="1" style="stop-color:#CF232B"/>
		</linearGradient>
		<path class="st7" d="M9.86,11.51c0.45,0,0.83-0.16,1.16-0.49c0.33-0.33,0.49-0.71,0.49-1.16l0-8.22c0-0.45-0.16-0.83-0.49-1.16
			C10.69,0.16,10.31,0,9.86,0C9.42,0,9.03,0.16,8.7,0.49C8.38,0.81,8.22,1.2,8.22,1.64l0,8.22c0,0.45,0.16,0.83,0.49,1.16
			C9.03,11.35,9.42,11.51,9.86,11.51z"/>
		<linearGradient id="SVGID_9_" gradientUnits="userSpaceOnUse" x1="3.637979e-12" y1="12.3341" x2="19.7274" y2="12.3341">
			<stop  offset="0" style="stop-color:#F37E5F"/>
			<stop  offset="0.5" style="stop-color:#EB2227"/>
			<stop  offset="1" style="stop-color:#CF232B"/>
		</linearGradient>
		<path class="st8" d="M18.69,7.1C18,5.72,17.03,4.57,15.78,3.63c-0.36-0.27-0.77-0.38-1.22-0.32c-0.45,0.06-0.81,0.27-1.08,0.64
			c-0.27,0.36-0.38,0.76-0.31,1.21c0.06,0.45,0.28,0.81,0.64,1.09c0.84,0.63,1.49,1.41,1.95,2.32c0.46,0.92,0.69,1.89,0.69,2.93
			c0,0.89-0.17,1.74-0.52,2.55c-0.35,0.81-0.82,1.51-1.41,2.1c-0.59,0.59-1.29,1.06-2.1,1.41c-0.81,0.35-1.66,0.52-2.55,0.52
			c-0.89,0-1.74-0.17-2.55-0.52c-0.81-0.35-1.51-0.82-2.1-1.41c-0.59-0.59-1.06-1.29-1.41-2.1c-0.35-0.81-0.52-1.66-0.52-2.55
			c0-1.04,0.23-2.01,0.69-2.93c0.46-0.92,1.11-1.69,1.95-2.33c0.36-0.27,0.57-0.64,0.64-1.09c0.06-0.45-0.04-0.85-0.32-1.21
			C5.97,3.59,5.62,3.37,5.17,3.32C4.72,3.26,4.31,3.36,3.94,3.64C2.69,4.57,1.72,5.73,1.03,7.11C0.34,8.48,0,9.95,0,11.51
			c0,1.34,0.26,2.61,0.78,3.83c0.52,1.22,1.23,2.26,2.11,3.15c0.88,0.88,1.93,1.58,3.15,2.11c1.22,0.52,2.49,0.78,3.83,0.78
			c1.34,0,2.61-0.26,3.83-0.79c1.22-0.52,2.26-1.22,3.15-2.11c0.88-0.88,1.58-1.93,2.11-3.15c0.52-1.22,0.78-2.49,0.78-3.83
			C19.73,9.95,19.38,8.48,18.69,7.1z"/>
	</g>
</g>
</svg>
