<?xml version="1.0" encoding="utf-8"?>
<!-- Generator: Adobe Illustrator 23.0.0, SVG Export Plug-In . SVG Version: 6.00 Build 0)  -->
<svg version="1.1" id="Layer_1" xmlns="http://www.w3.org/2000/svg" xmlns:xlink="http://www.w3.org/1999/xlink" x="0px" y="0px"
	 viewBox="0 0 1035.27 318.56" style="enable-background:new 0 0 1035.27 318.56;" xml:space="preserve">
<style type="text/css">
	.st0{clip-path:url(#SVGID_2_);}
	.st1{fill:url(#SVGID_3_);}
	.st2{fill:url(#SVGID_4_);}
	.st3{fill:url(#SVGID_5_);}
</style>
<g>
	<defs>
		<rect id="SVGID_1_" x="-0.31" width="1121.59" height="319"/>
	</defs>
	<clipPath id="SVGID_2_">
		<use xlink:href="#SVGID_1_"  style="overflow:visible;"/>
	</clipPath>
	<g class="st0">
		<linearGradient id="SVGID_3_" gradientUnits="userSpaceOnUse" x1="-88" y1="212.0499" x2="693.2885" y2="212.0499">
			<stop  offset="0" style="stop-color:#00F2FE"/>
			<stop  offset="0.021" style="stop-color:#03EFFE"/>
			<stop  offset="0.293" style="stop-color:#24D2FE"/>
			<stop  offset="0.554" style="stop-color:#3CBDFE"/>
			<stop  offset="0.796" style="stop-color:#4AB0FE"/>
			<stop  offset="1" style="stop-color:#4FACFE"/>
		</linearGradient>
		<path class="st1" d="M693.29,265.5c-72.47-57.37-168.01-76.83-260.32-81.71c-92.3-4.88-185.25,3-277.06-7.75
			c-70.98-8.31-140.64-27.8-205.63-57.52c-9.44-4.32-20.86-8.77-29.6-3.17c-9.55,6.12-9.35,19.9-8.03,31.16
			c4.46,38.35,11.07,80.75,41.12,104.98c18.26,14.72,42.18,19.97,65.22,24.38c159.5,30.5,322.74,41.43,484.88,32.45
			C569.09,304.72,636.22,297.27,693.29,265.5z"/>
		<g>
			<g>
				<linearGradient id="SVGID_4_" gradientUnits="userSpaceOnUse" x1="495.3783" y1="257.5301" x2="495.3783" y2="16.742">
					<stop  offset="0" style="stop-color:#FFFFFF"/>
					<stop  offset="1" style="stop-color:#878787;stop-opacity:0.5"/>
				</linearGradient>
				<path class="st2" d="M715.05,243.44v-59.12h-16.39v59.13l-4.5,0.01V184.2h-16.39v59.28l-12.95,0.01V141.26h-68.29v102.23h-11.07
					V38.79l-3.16-3.39V16.74h-3.19V32l-25.99-0.23v152.33h-8.38v-69.69h-6.46v-6.19h-20.64v-5h-14.09v5h-21.24v6.19h-5.86v129.07
					h-17.62V93.46h-8.46v-8.99H439.9v-5.49h-30.46v5.49h-10.45v8.99h-8.46v108.97h-14.62V138.7h-68.29v104.79h-16.96v-72.08h-16.38
					v72.08h-5.61v-72.08h-16.38v85.99l486.19,0.12v-14.11L715.05,243.44z M318.8,238.26h-5.02v-93.17h5.02V238.26z M330.67,237.87
					h-5.02v-5h5.02V237.87z M330.67,229.11h-5.02v-5.02h5.02V229.11z M330.67,220.32h-5.02v-5.02h5.02V220.32z M330.67,211.54h-5.02
					v-5h5.02V211.54z M330.67,202.77h-5.02v-5.02h5.02V202.77z M330.67,193.99h-5.02v-5.02h5.02V193.99z M330.67,185.22h-5.02v-5.02
					h5.02V185.22z M330.67,176.44h-5.02v-5.02h5.02V176.44z M330.67,167.66h-5.02v-5.02h5.02V167.66z M330.67,158.88h-5.02v-5.02
					h5.02V158.88z M330.67,150.11h-5.02v-5.02h5.02V150.11z M339.74,237.87h-5.02v-5h5.02V237.87z M339.74,229.11h-5.02v-5.02h5.02
					V229.11z M339.74,220.32h-5.02v-5.02h5.02V220.32z M339.74,211.54h-5.02v-5h5.02V211.54z M339.74,202.77h-5.02v-5.02h5.02
					V202.77z M339.74,193.99h-5.02v-5.02h5.02V193.99z M339.74,185.22h-5.02v-5.02h5.02V185.22z M339.74,176.44h-5.02v-5.02h5.02
					V176.44z M339.74,167.66h-5.02v-5.02h5.02V167.66z M339.74,158.88h-5.02v-5.02h5.02V158.88z M339.74,150.11h-5.02v-5.02h5.02
					V150.11z M348.81,237.87h-5.02v-5h5.02V237.87z M348.81,229.11h-5.02v-5.02h5.02V229.11z M348.81,220.32h-5.02v-5.02h5.02
					V220.32z M348.81,211.54h-5.02v-5h5.02V211.54z M348.81,202.77h-5.02v-5.02h5.02V202.77z M348.81,193.99h-5.02v-5.02h5.02
					V193.99z M348.81,185.22h-5.02v-5.02h5.02V185.22z M348.81,176.44h-5.02v-5.02h5.02V176.44z M348.81,167.66h-5.02v-5.02h5.02
					V167.66z M348.81,158.88h-5.02v-5.02h5.02V158.88z M348.81,150.11h-5.02v-5.02h5.02V150.11z M357.87,237.87h-5.02v-5h5.02
					V237.87z M357.87,229.11h-5.02v-5.02h5.02V229.11z M357.87,220.32h-5.02v-5.02h5.02V220.32z M357.87,211.54h-5.02v-5h5.02
					V211.54z M357.87,202.77h-5.02v-5.02h5.02V202.77z M357.87,193.99h-5.02v-5.02h5.02V193.99z M357.87,185.22h-5.02v-5.02h5.02
					V185.22z M357.87,176.44h-5.02v-5.02h5.02V176.44z M357.87,167.66h-5.02v-5.02h5.02V167.66z M357.87,158.88h-5.02v-5.02h5.02
					V158.88z M357.87,150.11h-5.02v-5.02h5.02V150.11z M369.45,238.26h-5.02v-93.17h5.02V238.26z M450.36,221.92h-51.37v-13.59
					h51.37V221.92z M450.36,201.28h-51.37v-13.6h51.37V201.28z M450.36,180.64h-51.37v-13.6h51.37V180.64z M450.36,160h-51.37v-13.6
					h51.37V160z M450.36,139.36h-51.37v-13.6h51.37V139.36z M450.36,118.72h-51.37v-13.6h51.37V118.72z M487.64,213.99h-5.02v-93.18
					h5.02V213.99z M499.5,213.61h-5.02v-5.02h5.02V213.61z M499.5,204.83h-5.02v-5.02h5.02V204.83z M499.5,196.05h-5.02v-5.02h5.02
					V196.05z M499.5,187.27h-5.02v-5.02h5.02V187.27z M499.5,178.5h-5.02v-5.02h5.02V178.5z M499.5,169.72h-5.02v-5.02h5.02V169.72z
					 M499.5,160.94h-5.02v-5.02h5.02V160.94z M499.5,152.16h-5.02v-5.02h5.02V152.16z M499.5,143.38h-5.02v-5.02h5.02V143.38z
					 M499.5,134.61h-5.02v-5.02h5.02V134.61z M499.5,125.83h-5.02v-5.02h5.02V125.83z M508.57,213.61h-5.03v-5.02h5.03V213.61z
					 M508.57,204.83h-5.03v-5.02h5.03V204.83z M508.57,196.05h-5.03v-5.02h5.03V196.05z M508.57,187.27h-5.03v-5.02h5.03V187.27z
					 M508.57,178.5h-5.03v-5.02h5.03V178.5z M508.57,169.72h-5.03v-5.02h5.03V169.72z M508.57,160.94h-5.03v-5.02h5.03V160.94z
					 M508.57,152.16h-5.03v-5.02h5.03V152.16z M508.57,143.38h-5.03v-5.02h5.03V143.38z M508.57,134.61h-5.03v-5.02h5.03V134.61z
					 M508.57,125.83h-5.03v-5.02h5.03V125.83z M517.63,213.61h-5.02v-5.02h5.02V213.61z M517.63,204.83h-5.02v-5.02h5.02V204.83z
					 M517.63,196.05h-5.02v-5.02h5.02V196.05z M517.63,187.27h-5.02v-5.02h5.02V187.27z M517.63,178.5h-5.02v-5.02h5.02V178.5z
					 M517.63,169.72h-5.02v-5.02h5.02V169.72z M517.63,160.94h-5.02v-5.02h5.02V160.94z M517.63,152.16h-5.02v-5.02h5.02V152.16z
					 M517.63,143.38h-5.02v-5.02h5.02V143.38z M517.63,134.61h-5.02v-5.02h5.02V134.61z M517.63,125.83h-5.02v-5.02h5.02V125.83z
					 M526.71,213.61h-5.02v-5.02h5.02V213.61z M526.71,204.83h-5.02v-5.02h5.02V204.83z M526.71,196.05h-5.02v-5.02h5.02V196.05z
					 M526.71,187.27h-5.02v-5.02h5.02V187.27z M526.71,178.5h-5.02v-5.02h5.02V178.5z M526.71,169.72h-5.02v-5.02h5.02V169.72z
					 M526.71,160.94h-5.02v-5.02h5.02V160.94z M526.71,152.16h-5.02v-5.02h5.02V152.16z M526.71,143.38h-5.02v-5.02h5.02V143.38z
					 M526.71,134.61h-5.02v-5.02h5.02V134.61z M526.71,125.83h-5.02v-5.02h5.02V125.83z M538.27,213.99h-5.02v-93.18h5.02V213.99z
					 M571.8,228.74h-5.02v-5.02h5.02V228.74z M571.8,218.81h-5.02v-5.02h5.02V218.81z M571.8,208.88h-5.02v-5.02h5.02V208.88z
					 M571.8,198.94h-5.02v-5.02h5.02V198.94z M571.8,189.01h-5.02V184h5.02V189.01z M571.8,179.07h-5.02v-5.02h5.02V179.07z
					 M571.8,169.14h-5.02v-5.02h5.02V169.14z M571.8,159.21h-5.02v-5.02h5.02V159.21z M571.8,149.27h-5.02v-5.02h5.02V149.27z
					 M571.8,139.34h-5.02v-5.02h5.02V139.34z M571.8,129.4h-5.02v-5.02h5.02V129.4z M571.8,119.47h-5.02v-5.02h5.02V119.47z
					 M571.8,109.53h-5.02v-5h5.02V109.53z M571.8,99.6h-5.02v-5.02h5.02V99.6z M571.8,89.67h-5.02v-5.02h5.02V89.67z M571.8,79.83
					h-5.02v-5.02h5.02V79.83z M571.8,69.99h-5.02v-5.02h5.02V69.99z M571.8,60.15h-5.02v-5.02h5.02V60.15z M571.8,50.31h-5.02v-5.02
					h5.02V50.31z M607.73,240.83h-5.02v-93.18h5.02V240.83z M619.59,240.45h-5.02v-5.02h5.02V240.45z M619.59,231.67h-5.02v-5.02
					h5.02V231.67z M619.59,222.89h-5.02v-5.02h5.02V222.89z M619.59,214.12h-5.02v-5.02h5.02V214.12z M619.59,205.34h-5.02v-5.02
					h5.02V205.34z M619.59,196.56h-5.02v-5.02h5.02V196.56z M619.59,187.78h-5.02v-5.02h5.02V187.78z M619.59,179h-5.02v-5.02h5.02
					V179z M619.59,170.23h-5.02v-5.02h5.02V170.23z M619.59,161.45h-5.02v-5.02h5.02V161.45z M619.59,152.67h-5.02v-5.02h5.02
					V152.67z M628.65,240.45h-5.02v-5.02h5.02V240.45z M628.65,231.67h-5.02v-5.02h5.02V231.67z M628.65,222.89h-5.02v-5.02h5.02
					V222.89z M628.65,214.12h-5.02v-5.02h5.02V214.12z M628.65,205.34h-5.02v-5.02h5.02V205.34z M628.65,196.56h-5.02v-5.02h5.02
					V196.56z M628.65,187.78h-5.02v-5.02h5.02V187.78z M628.65,179h-5.02v-5.02h5.02V179z M628.65,170.23h-5.02v-5.02h5.02V170.23z
					 M628.65,161.45h-5.02v-5.02h5.02V161.45z M628.65,152.67h-5.02v-5.02h5.02V152.67z M637.72,240.45h-5.02v-5.02h5.02V240.45z
					 M637.72,231.67h-5.02v-5.02h5.02V231.67z M637.72,222.89h-5.02v-5.02h5.02V222.89z M637.72,214.12h-5.02v-5.02h5.02V214.12z
					 M637.72,205.34h-5.02v-5.02h5.02V205.34z M637.72,196.56h-5.02v-5.02h5.02V196.56z M637.72,187.78h-5.02v-5.02h5.02V187.78z
					 M637.72,179h-5.02v-5.02h5.02V179z M637.72,170.23h-5.02v-5.02h5.02V170.23z M637.72,161.45h-5.02v-5.02h5.02V161.45z
					 M637.72,152.67h-5.02v-5.02h5.02V152.67z M646.79,240.45h-5.03v-5.02h5.03V240.45z M646.79,231.67h-5.03v-5.02h5.03V231.67z
					 M646.79,222.89h-5.03v-5.02h5.03V222.89z M646.79,214.12h-5.03v-5.02h5.03V214.12z M646.79,205.34h-5.03v-5.02h5.03V205.34z
					 M646.79,196.56h-5.03v-5.02h5.03V196.56z M646.79,187.78h-5.03v-5.02h5.03V187.78z M646.79,179h-5.03v-5.02h5.03V179z
					 M646.79,170.23h-5.03v-5.02h5.03V170.23z M646.79,161.45h-5.03v-5.02h5.03V161.45z M646.79,152.67h-5.03v-5.02h5.03V152.67z
					 M658.36,240.83h-5.02v-93.18h5.02V240.83z"/>
			</g>
		</g>
		<linearGradient id="SVGID_5_" gradientUnits="userSpaceOnUse" x1="-27.6533" y1="279.233" x2="1064.8683" y2="279.233">
			<stop  offset="0" style="stop-color:#00F2FE"/>
			<stop  offset="0.021" style="stop-color:#03EFFE"/>
			<stop  offset="0.293" style="stop-color:#24D2FE"/>
			<stop  offset="0.554" style="stop-color:#3CBDFE"/>
			<stop  offset="0.796" style="stop-color:#4AB0FE"/>
			<stop  offset="1" style="stop-color:#4FACFE"/>
		</linearGradient>
		<path class="st3" d="M415.28,251.37c-118.99-12.29-230.99-70.66-350.6-72.44c-20.98-0.31-43.29,1.59-60.22,14
			c-27.11,19.88-30.68,58.29-31.85,91.89c-0.83,23.85-0.66,50.48,15.76,67.79c16.03,16.9,41.88,18.85,65.17,19.25
			c173.47,3.04,346.75-18.7,520.18-13.8c161.28,4.56,336.39,45.85,491.15,0.25c-41.91-62.58-125.2-112.63-199.49-125.03
			c-74.29-12.4-150.33-4.03-225.04,5.53C565.63,248.37,490.2,259.11,415.28,251.37z"/>
	</g>
</g>
</svg>
