<?xml version="1.0" encoding="utf-8"?>
<!-- Generator: Adobe Illustrator 23.0.0, SVG Export Plug-In . SVG Version: 6.00 Build 0)  -->
<svg version="1.1" id="Layer_1" xmlns="http://www.w3.org/2000/svg" xmlns:xlink="http://www.w3.org/1999/xlink" x="0px" y="0px"
	 viewBox="0 0 84.56 39.33" style="enable-background:new 0 0 84.56 39.33;" xml:space="preserve">
<style type="text/css">
	.st0{fill:url(#SVGID_1_);}
	.st1{fill:url(#SVGID_2_);}
	.st2{fill:url(#SVGID_3_);}
	.st3{fill:url(#SVGID_4_);}
	.st4{fill:url(#SVGID_5_);}
	.st5{fill:url(#SVGID_6_);}
	.st6{fill:url(#SVGID_7_);}
</style>
<g>
	<g>
		<linearGradient id="SVGID_1_" gradientUnits="userSpaceOnUse" x1="27.3302" y1="20.0687" x2="43.7864" y2="20.0687">
			<stop  offset="0" style="stop-color:#010101;stop-opacity:0.9"/>
			<stop  offset="0.1471" style="stop-color:#010101;stop-opacity:0.8706"/>
			<stop  offset="1" style="stop-color:#010101;stop-opacity:0.7"/>
		</linearGradient>
		<path class="st0" d="M35.56,6.17c-4.5,0-8.03,3.22-8.22,7.48c-0.12,2.75,1.07,6.49,7.45,8.68c4.34,1.49,4.26,3.35,4.23,3.96
			c-0.07,1.69-1.53,2.92-3.46,2.92c-2.32,0-3.25-1.15-3.61-2.12l-4.46,1.69c0.46,1.22,2.41,5.19,8.07,5.19
			c4.5,0,8.03-3.22,8.22-7.48c0.12-2.75-1.07-6.49-7.45-8.68c-4.34-1.49-4.26-3.35-4.23-3.96c0.07-1.69,1.53-2.92,3.46-2.92
			c2.32,0,3.25,1.15,3.61,2.12l4.46-1.69C43.17,10.14,41.22,6.17,35.56,6.17"/>
	</g>
	<g>
		<linearGradient id="SVGID_2_" gradientUnits="userSpaceOnUse" x1="55.8779" y1="33.9227" x2="55.8779" y2="6.9032">
			<stop  offset="0" style="stop-color:#010101;stop-opacity:0.9"/>
			<stop  offset="0.1471" style="stop-color:#010101;stop-opacity:0.8706"/>
			<stop  offset="1" style="stop-color:#010101;stop-opacity:0.7"/>
		</linearGradient>
		<path class="st1" d="M55.88,6.9c-2.39,0-4.68,0.95-6.37,2.64c-1.69,1.69-2.64,3.98-2.64,6.36v9.07c0.03,4.95,4.05,8.95,9,8.95
			c4.95,0,8.98-4,9-8.95v-2.19H60.2v2.19c0,2.39-1.93,4.32-4.32,4.32c-2.39,0-4.32-1.93-4.32-4.32V15.9c0-1.75,1.05-3.32,2.67-3.99
			c1.61-0.67,3.47-0.3,4.71,0.94l3.31-3.31C60.56,7.85,58.27,6.9,55.88,6.9"/>
		<linearGradient id="SVGID_3_" gradientUnits="userSpaceOnUse" x1="60.3872" y1="22.7769" x2="60.3872" y2="18.0972">
			<stop  offset="0" style="stop-color:#010101;stop-opacity:0.9"/>
			<stop  offset="0.1471" style="stop-color:#010101;stop-opacity:0.8706"/>
			<stop  offset="1" style="stop-color:#010101;stop-opacity:0.7"/>
		</linearGradient>
		<polyline class="st2" points="64.88,18.1 55.89,18.1 55.89,22.78 64.88,22.78 64.88,18.1 		"/>
	</g>
	<g>
		<linearGradient id="SVGID_4_" gradientUnits="userSpaceOnUse" x1="67.9673" y1="24.4052" x2="84.5616" y2="24.4052">
			<stop  offset="0" style="stop-color:#010101;stop-opacity:0.9"/>
			<stop  offset="0.1471" style="stop-color:#010101;stop-opacity:0.8706"/>
			<stop  offset="1" style="stop-color:#010101;stop-opacity:0.7"/>
		</linearGradient>
		<path class="st3" d="M67.97,14.84L67.97,14.84v11.19c0,4.38,3.56,7.93,7.94,7.94h8.66v-4.68h-8.66c-1.8,0-3.26-1.46-3.26-3.26
			v-3.96C69.8,20.79,67.97,17.96,67.97,14.84"/>
		<linearGradient id="SVGID_5_" gradientUnits="userSpaceOnUse" x1="72.648" y1="18.8083" x2="84.5616" y2="18.8083">
			<stop  offset="0" style="stop-color:#010101;stop-opacity:0.9"/>
			<stop  offset="0.1471" style="stop-color:#010101;stop-opacity:0.8706"/>
			<stop  offset="1" style="stop-color:#010101;stop-opacity:0.7"/>
		</linearGradient>
		<path class="st4" d="M72.65,14.84L72.65,14.84v7.24c1.02,0.46,2.13,0.7,3.26,0.7h8.66V18.1h-8.66
			C74.11,18.09,72.65,16.64,72.65,14.84"/>
		<linearGradient id="SVGID_6_" gradientUnits="userSpaceOnUse" x1="67.9671" y1="14.4901" x2="84.5616" y2="14.4901">
			<stop  offset="0" style="stop-color:#010101;stop-opacity:0.9"/>
			<stop  offset="0.1471" style="stop-color:#010101;stop-opacity:0.8706"/>
			<stop  offset="1" style="stop-color:#010101;stop-opacity:0.7"/>
		</linearGradient>
		<path class="st5" d="M84.56,6.9h-8.66c-3.74,0-6.98,2.61-7.76,6.27c-0.79,3.66,1.09,7.37,4.5,8.9v-7.24c0-1.8,1.46-3.25,3.26-3.26
			h8.66V6.9"/>
	</g>
	<linearGradient id="SVGID_7_" gradientUnits="userSpaceOnUse" x1="0.5315" y1="19.7129" x2="18.5455" y2="19.7129">
		<stop  offset="0" style="stop-color:#2FB671"/>
		<stop  offset="1" style="stop-color:#20BBB1"/>
	</linearGradient>
	<path class="st6" d="M6.33,37.38l3.18-13.94L1.16,23.4c-0.35,0-0.63-0.43-0.63-0.97c0-0.23,0.05-0.43,0.15-0.62l0,0
		c2.45-4.62,4.89-9.24,7.34-13.86c1.21-2.25,2.42-4.54,3.66-6.87c0.23-0.43,0.61-0.47,0.88-0.16c0.2,0.27,0.28,0.7,0.2,1.09
		l-3.2,13.98l8.35,0.04c0.35,0,0.63,0.43,0.63,0.97c0,0.23-0.05,0.43-0.13,0.58l0,0c-2.35,4.66-4.82,9.24-7.29,13.86
		c-1.21,2.25-2.42,4.5-3.71,6.91c-0.23,0.43-0.61,0.47-0.88,0.16C6.31,38.2,6.23,37.77,6.33,37.38"/>
</g>
</svg>
