<?xml version="1.0" encoding="utf-8"?>
<!-- Generator: Adobe Illustrator 23.0.0, SVG Export Plug-In . SVG Version: 6.00 Build 0)  -->
<svg version="1.1" id="Layer_1" xmlns="http://www.w3.org/2000/svg" xmlns:xlink="http://www.w3.org/1999/xlink" x="0px" y="0px"
	 viewBox="0 0 18.37 18.52" style="enable-background:new 0 0 18.37 18.52;" xml:space="preserve">
<style type="text/css">
	.st0{fill:url(#SVGID_1_);}
	.st1{fill:url(#SVGID_2_);}
	.st2{fill:url(#SVGID_3_);}
	.st3{fill:url(#SVGID_4_);}
	.st4{fill:url(#SVGID_5_);}
	.st5{fill:url(#SVGID_6_);}
	.st6{fill:url(#SVGID_7_);}
	.st7{fill:#E6E6E5;}
	.st8{fill:url(#SVGID_8_);}
	.st9{fill:url(#SVGID_9_);}
</style>
<g>
	<g>
		<linearGradient id="SVGID_1_" gradientUnits="userSpaceOnUse" x1="-92.0281" y1="9.3007" x2="-75.5719" y2="9.3007">
			<stop  offset="0" style="stop-color:#010101;stop-opacity:0.9"/>
			<stop  offset="0.1471" style="stop-color:#010101;stop-opacity:0.8706"/>
			<stop  offset="1" style="stop-color:#010101;stop-opacity:0.7"/>
		</linearGradient>
		<path class="st0" d="M-83.8-4.6c-4.5,0-8.03,3.22-8.22,7.48c-0.12,2.75,1.07,6.49,7.45,8.68c4.34,1.49,4.26,3.35,4.23,3.96
			c-0.07,1.69-1.53,2.92-3.46,2.92c-2.32,0-3.25-1.15-3.61-2.12l-4.46,1.69c0.46,1.22,2.41,5.19,8.07,5.19
			c4.5,0,8.03-3.22,8.22-7.48c0.12-2.75-1.07-6.49-7.45-8.68c-4.34-1.49-4.26-3.35-4.23-3.96c0.07-1.69,1.53-2.92,3.46-2.92
			c2.32,0,3.25,1.15,3.61,2.12l4.46-1.69C-76.19-0.63-78.14-4.6-83.8-4.6"/>
	</g>
	<g>
		<linearGradient id="SVGID_2_" gradientUnits="userSpaceOnUse" x1="-63.4805" y1="23.1547" x2="-63.4805" y2="-3.8648">
			<stop  offset="0" style="stop-color:#010101;stop-opacity:0.9"/>
			<stop  offset="0.1471" style="stop-color:#010101;stop-opacity:0.8706"/>
			<stop  offset="1" style="stop-color:#010101;stop-opacity:0.7"/>
		</linearGradient>
		<path class="st1" d="M-63.48-3.86c-2.39,0-4.68,0.95-6.37,2.64c-1.69,1.69-2.64,3.98-2.64,6.36v9.07c0.03,4.95,4.05,8.95,9,8.95
			c4.95,0,8.98-4,9-8.95v-2.19h-4.68v2.19c0,2.39-1.93,4.32-4.32,4.32c-2.39,0-4.32-1.93-4.32-4.32V5.14c0-1.75,1.05-3.32,2.67-3.99
			c1.61-0.67,3.47-0.3,4.71,0.94l3.31-3.31C-58.8-2.92-61.09-3.87-63.48-3.86"/>
		<linearGradient id="SVGID_3_" gradientUnits="userSpaceOnUse" x1="-58.9711" y1="12.0089" x2="-58.9711" y2="7.3292">
			<stop  offset="0" style="stop-color:#010101;stop-opacity:0.9"/>
			<stop  offset="0.1471" style="stop-color:#010101;stop-opacity:0.8706"/>
			<stop  offset="1" style="stop-color:#010101;stop-opacity:0.7"/>
		</linearGradient>
		<polyline class="st2" points="-54.48,7.33 -63.46,7.33 -63.46,12.01 -54.48,12.01 -54.48,7.33 		"/>
	</g>
	<g>
		<linearGradient id="SVGID_4_" gradientUnits="userSpaceOnUse" x1="-51.391" y1="13.6372" x2="-34.7967" y2="13.6372">
			<stop  offset="0" style="stop-color:#010101;stop-opacity:0.9"/>
			<stop  offset="0.1471" style="stop-color:#010101;stop-opacity:0.8706"/>
			<stop  offset="1" style="stop-color:#010101;stop-opacity:0.7"/>
		</linearGradient>
		<path class="st3" d="M-51.39,4.07L-51.39,4.07v11.19c0,4.38,3.56,7.93,7.94,7.94h8.66v-4.68h-8.66c-1.8,0-3.26-1.46-3.26-3.26
			v-3.96C-49.56,10.03-51.39,7.19-51.39,4.07"/>
		<linearGradient id="SVGID_5_" gradientUnits="userSpaceOnUse" x1="-46.7103" y1="8.0403" x2="-34.7967" y2="8.0403">
			<stop  offset="0" style="stop-color:#010101;stop-opacity:0.9"/>
			<stop  offset="0.1471" style="stop-color:#010101;stop-opacity:0.8706"/>
			<stop  offset="1" style="stop-color:#010101;stop-opacity:0.7"/>
		</linearGradient>
		<path class="st4" d="M-46.71,4.07L-46.71,4.07v7.24c1.02,0.46,2.13,0.7,3.26,0.7h8.66V7.33h-8.66
			C-45.25,7.33-46.71,5.87-46.71,4.07"/>
		<linearGradient id="SVGID_6_" gradientUnits="userSpaceOnUse" x1="-51.3912" y1="3.7221" x2="-34.7967" y2="3.7221">
			<stop  offset="0" style="stop-color:#010101;stop-opacity:0.9"/>
			<stop  offset="0.1471" style="stop-color:#010101;stop-opacity:0.8706"/>
			<stop  offset="1" style="stop-color:#010101;stop-opacity:0.7"/>
		</linearGradient>
		<path class="st5" d="M-34.8-3.87h-8.66c-3.74,0-6.98,2.61-7.76,6.27c-0.79,3.66,1.09,7.37,4.5,8.9V4.07c0-1.8,1.46-3.25,3.26-3.26
			h8.66V-3.87"/>
	</g>
	<linearGradient id="SVGID_7_" gradientUnits="userSpaceOnUse" x1="-118.8268" y1="8.9449" x2="-100.8128" y2="8.9449">
		<stop  offset="0" style="stop-color:#2FB671"/>
		<stop  offset="1" style="stop-color:#20BBB1"/>
	</linearGradient>
	<path class="st6" d="M-113.02,26.61l3.18-13.94l-8.35-0.04c-0.35,0-0.63-0.43-0.63-0.97c0-0.23,0.05-0.43,0.15-0.62l0,0
		c2.45-4.62,4.89-9.24,7.34-13.86c1.21-2.25,2.42-4.54,3.66-6.87c0.23-0.43,0.61-0.47,0.88-0.16c0.2,0.27,0.28,0.7,0.2,1.09
		l-3.2,13.98l8.35,0.04c0.35,0,0.63,0.43,0.63,0.97c0,0.23-0.05,0.43-0.13,0.58l0,0c-2.35,4.66-4.82,9.24-7.29,13.86
		c-1.21,2.25-2.42,4.5-3.71,6.91c-0.23,0.43-0.61,0.47-0.88,0.16C-113.05,27.43-113.12,27-113.02,26.61"/>
	<g id="XMLID_3865_">
		<g>
			<path id="XMLID_23_" class="st7" d="M0,16.48c0-0.08,0-0.15,0-0.23c0.04-0.1,0.11-0.17,0.19-0.25c1.39-1.39,2.79-2.79,4.18-4.18
				c0.02-0.02,0.05-0.05,0.07-0.07c-0.01-0.02-0.03-0.04-0.04-0.06C3.5,10.27,3.11,8.73,3.22,7.06c0.03-0.45,0.1-0.89,0.21-1.32
				c0.55-2.16,2.01-3.96,4.01-4.95c0.91-0.45,1.86-0.7,2.87-0.76c0.06,0,0.12-0.02,0.18-0.03c0.2,0,0.4,0,0.6,0
				c0.06,0.01,0.12,0.02,0.17,0.03c0.49,0.03,0.97,0.11,1.45,0.23c3.19,0.84,5.49,3.67,5.64,6.96c0,0.03,0.01,0.06,0.01,0.09
				c0,0.19,0,0.38,0,0.57c0,0.03-0.01,0.05-0.01,0.08c-0.02,0.46-0.09,0.92-0.19,1.36c-0.5,2.12-1.89,3.93-3.82,4.96
				c-0.95,0.51-1.96,0.79-3.04,0.87c-0.69,0.05-1.37,0-2.04-0.13c-0.86-0.17-1.66-0.49-2.41-0.94c-0.02-0.01-0.04-0.02-0.07-0.03
				c-0.02,0.02-0.04,0.05-0.06,0.07c-1.42,1.42-2.84,2.84-4.26,4.26c-0.02,0.02-0.04,0.04-0.05,0.05c-0.05,0.05-0.12,0.08-0.19,0.08
				c-0.15,0.01-0.29-0.01-0.42-0.07c-0.22-0.1-0.42-0.24-0.59-0.41c-0.24-0.24-0.48-0.48-0.72-0.72c-0.23-0.24-0.41-0.5-0.49-0.83
				C0.01,16.49,0,16.48,0,16.48z M10.79,2.52c-2.8,0-5.07,2.27-5.07,5.06c0,2.8,2.26,5.07,5.07,5.07c2.8,0,5.06-2.26,5.06-5.06
				C15.85,4.79,13.59,2.52,10.79,2.52z"/>
		</g>
	</g>
</g>
<g>
	<g>
		<linearGradient id="SVGID_8_" gradientUnits="userSpaceOnUse" x1="-18.2252" y1="4.6996" x2="-14.9346" y2="4.6996">
			<stop  offset="0" style="stop-color:#F37E5F"/>
			<stop  offset="0.5" style="stop-color:#EB2227"/>
			<stop  offset="1" style="stop-color:#CF232B"/>
		</linearGradient>
		<path class="st8" d="M-16.58,10.45c0.45,0,0.83-0.16,1.16-0.49c0.33-0.33,0.49-0.71,0.49-1.16l0-8.22c0-0.45-0.16-0.83-0.49-1.16
			c-0.33-0.33-0.71-0.49-1.16-0.49c-0.45,0-0.83,0.16-1.16,0.49c-0.33,0.33-0.49,0.71-0.49,1.16l0,8.22c0,0.45,0.16,0.83,0.49,1.16
			C-17.41,10.29-17.02,10.45-16.58,10.45z"/>
		<linearGradient id="SVGID_9_" gradientUnits="userSpaceOnUse" x1="-26.4422" y1="11.2798" x2="-6.7148" y2="11.2798">
			<stop  offset="0" style="stop-color:#F37E5F"/>
			<stop  offset="0.5" style="stop-color:#EB2227"/>
			<stop  offset="1" style="stop-color:#CF232B"/>
		</linearGradient>
		<path class="st9" d="M-7.75,6.05c-0.69-1.38-1.66-2.53-2.91-3.47c-0.36-0.27-0.77-0.38-1.22-0.32c-0.45,0.06-0.81,0.27-1.08,0.64
			c-0.27,0.36-0.38,0.76-0.31,1.21c0.06,0.45,0.28,0.81,0.64,1.09c0.84,0.63,1.49,1.41,1.95,2.32C-10.23,8.44-10,9.42-10,10.45
			c0,0.89-0.17,1.74-0.52,2.55c-0.35,0.81-0.82,1.51-1.41,2.1c-0.59,0.59-1.29,1.06-2.1,1.41c-0.81,0.35-1.66,0.52-2.55,0.52
			c-0.89,0-1.74-0.17-2.55-0.52c-0.81-0.35-1.51-0.82-2.1-1.41c-0.59-0.59-1.06-1.29-1.41-2.1c-0.35-0.81-0.52-1.66-0.52-2.55
			c0-1.04,0.23-2.01,0.69-2.93c0.46-0.92,1.11-1.69,1.95-2.33c0.36-0.27,0.57-0.64,0.64-1.09c0.06-0.45-0.04-0.85-0.32-1.21
			c-0.27-0.37-0.62-0.58-1.07-0.64c-0.45-0.06-0.86,0.05-1.23,0.32c-1.25,0.93-2.22,2.09-2.91,3.47c-0.69,1.38-1.03,2.85-1.03,4.41
			c0,1.34,0.26,2.61,0.78,3.83c0.52,1.22,1.23,2.26,2.11,3.15c0.88,0.88,1.93,1.58,3.15,2.11c1.22,0.52,2.49,0.78,3.83,0.78
			c1.34,0,2.61-0.26,3.83-0.79c1.22-0.52,2.26-1.22,3.15-2.11c0.88-0.88,1.58-1.93,2.11-3.15s0.78-2.49,0.78-3.83
			C-6.72,8.89-7.06,7.42-7.75,6.05z"/>
	</g>
</g>
</svg>
